<svg xmlns="http://www.w3.org/2000/svg" viewBox="0 0 109 84.48"><defs><style>.cls-1,.cls-2,.cls-5{fill:#ddaf29;}.cls-1,.cls-2,.cls-6,.cls-8{stroke:#000;stroke-miterlimit:10;stroke-width:2px;}.cls-1{opacity:0.85;}.cls-3{fill:#7a6117;}.cls-4,.cls-6{fill:#f8f4e6;}.cls-7{font-size:27px;font-family:TA-candy-90ms-RKSJ-H, TA-candy;letter-spacing:0.04em;}.cls-8{fill:none;}</style></defs><g id="レイヤー_2" data-name="レイヤー 2"><g id="レイヤー_9" data-name="レイヤー 9"><path class="cls-1" d="M54,83.24,43.19,80.92a26.94,26.94,0,0,0-5.66-.6h-18a24,24,0,0,0-4.14.36L1,83.24V14.6L15.59,12a21,21,0,0,1,3.8-.34h18.8a26.11,26.11,0,0,1,5.77.65L54,14.6Z"/><path class="cls-2" d="M108,83.24l-11-2.34a27.11,27.11,0,0,0-5.74-.61H73.09a23.48,23.48,0,0,0-4.19.37L54.28,83.24V13.91L69.07,11.3A22.47,22.47,0,0,1,72.91,11H92a26.17,26.17,0,0,1,5.85.66L108,13.91Z"/><path class="cls-3" d="M54.2,15.37C60.82,7.79,72.66,1.87,83.76.52c15-1.82,20,5.78,20.2,6.12"/><path class="cls-4" d="M102.44,69,90,69.85a22.52,22.52,0,0,0-4.23.71L76.58,73a61.43,61.43,0,0,0-9.44,3.39L54.28,82.24V14.56L66.52,6.64l2.16-.72,2.16-.72L80.2,2.32a40,40,0,0,1,15.12,0l6.22,2A2.06,2.06,0,0,1,104,6.4V66.89Z"/><path class="cls-5" d="M54.16,83c6.25-8.36,18-15.7,29.44-18.39C99,61,104.75,67.92,105,68.24"/><path class="cls-6" d="M53.17,15C63.4,6.33,77.4.8,88.64,1c9.83.18,14.08,4.68,15.27,6.11"/><text class="cls-7" transform="translate(9.47 51.48)">menu</text><path class="cls-8" d="M53.49,82.89c9.27-10,22.69-17.32,34-18.57,9.9-1.09,14.69,2.84,16.06,4.12"/><line class="cls-8" x1="104" y1="7.24" x2="104" y2="68.24"/></g></g></svg>